<mxfile host="app.diagrams.net" agent="Mozilla/5.0 (Windows NT 10.0; Win64; x64) AppleWebKit/537.36 (KHTML, like Gecko) Chrome/135.0.0.0 Safari/537.36" version="26.2.14">
  <diagram name="Page-1" id="i_YAxfoFjqpTj1lfcEn4">
    <mxGraphModel dx="1042" dy="622" grid="0" gridSize="10" guides="1" tooltips="1" connect="1" arrows="1" fold="1" page="1" pageScale="1" pageWidth="850" pageHeight="1100" math="0" shadow="0">
      <root>
        <mxCell id="0" />
        <mxCell id="1" parent="0" />
        <mxCell id="kuzPXEE_GRvSzF0P8LhA-2" value="" style="rounded=0;whiteSpace=wrap;html=1;strokeWidth=3;fillColor=#ffe6cc;strokeColor=#d79b00;fontFamily=Courier New;" vertex="1" parent="1">
          <mxGeometry x="180" y="220" width="490" height="480" as="geometry" />
        </mxCell>
        <mxCell id="kuzPXEE_GRvSzF0P8LhA-4" value="" style="rounded=0;whiteSpace=wrap;html=1;align=left;fontSize=20;strokeWidth=3;fillColor=#fff2cc;strokeColor=#d6b656;fontFamily=Courier New;" vertex="1" parent="1">
          <mxGeometry x="215" y="260" width="175" height="160" as="geometry" />
        </mxCell>
        <mxCell id="kuzPXEE_GRvSzF0P8LhA-6" value="&lt;b&gt;HA1&lt;/b&gt;" style="rounded=0;whiteSpace=wrap;html=1;fontSize=20;strokeWidth=3;fillColor=#f8cecc;strokeColor=#b85450;fontFamily=Courier New;" vertex="1" parent="1">
          <mxGeometry x="250" y="300" width="50" height="30" as="geometry" />
        </mxCell>
        <mxCell id="kuzPXEE_GRvSzF0P8LhA-7" value="&lt;b&gt;HA2&lt;/b&gt;" style="rounded=0;whiteSpace=wrap;html=1;fontSize=20;strokeWidth=3;fillColor=#f8cecc;strokeColor=#b85450;fontFamily=Courier New;" vertex="1" parent="1">
          <mxGeometry x="250" y="360" width="50" height="30" as="geometry" />
        </mxCell>
        <mxCell id="kuzPXEE_GRvSzF0P8LhA-9" value="&lt;b&gt;OR&lt;/b&gt;" style="rounded=0;whiteSpace=wrap;html=1;fontSize=20;strokeWidth=3;fillColor=#e1d5e7;strokeColor=#9673a6;fontFamily=Courier New;" vertex="1" parent="1">
          <mxGeometry x="320" y="330" width="50" height="30" as="geometry" />
        </mxCell>
        <mxCell id="kuzPXEE_GRvSzF0P8LhA-10" value="&lt;b&gt;FA1&lt;/b&gt;" style="text;html=1;align=center;verticalAlign=middle;resizable=0;points=[];autosize=1;strokeColor=none;fillColor=none;fontSize=20;strokeWidth=3;fontFamily=Courier New;" vertex="1" parent="1">
          <mxGeometry x="272.5" y="225" width="60" height="40" as="geometry" />
        </mxCell>
        <mxCell id="kuzPXEE_GRvSzF0P8LhA-11" value="" style="rounded=0;whiteSpace=wrap;html=1;align=left;fontSize=20;strokeWidth=3;fillColor=#fff2cc;strokeColor=#d6b656;fontFamily=Courier New;" vertex="1" parent="1">
          <mxGeometry x="460" y="260" width="175" height="160" as="geometry" />
        </mxCell>
        <mxCell id="kuzPXEE_GRvSzF0P8LhA-12" value="&lt;b&gt;HA1&lt;/b&gt;" style="rounded=0;whiteSpace=wrap;html=1;fontSize=20;strokeWidth=3;fillColor=#f8cecc;strokeColor=#b85450;fontFamily=Courier New;" vertex="1" parent="1">
          <mxGeometry x="495" y="300" width="50" height="30" as="geometry" />
        </mxCell>
        <mxCell id="kuzPXEE_GRvSzF0P8LhA-13" value="&lt;b&gt;HA2&lt;/b&gt;" style="rounded=0;whiteSpace=wrap;html=1;fontSize=20;strokeWidth=3;fillColor=#f8cecc;strokeColor=#b85450;fontFamily=Courier New;" vertex="1" parent="1">
          <mxGeometry x="495" y="360" width="50" height="30" as="geometry" />
        </mxCell>
        <mxCell id="kuzPXEE_GRvSzF0P8LhA-14" value="&lt;b&gt;OR&lt;/b&gt;" style="rounded=0;whiteSpace=wrap;html=1;fontSize=20;strokeWidth=3;fillColor=#e1d5e7;strokeColor=#9673a6;fontFamily=Courier New;" vertex="1" parent="1">
          <mxGeometry x="565" y="330" width="50" height="30" as="geometry" />
        </mxCell>
        <mxCell id="kuzPXEE_GRvSzF0P8LhA-15" value="&lt;b&gt;FA2&lt;/b&gt;" style="text;html=1;align=center;verticalAlign=middle;resizable=0;points=[];autosize=1;strokeColor=none;fillColor=none;fontSize=20;strokeWidth=3;fontFamily=Courier New;" vertex="1" parent="1">
          <mxGeometry x="517.5" y="225" width="60" height="40" as="geometry" />
        </mxCell>
        <mxCell id="kuzPXEE_GRvSzF0P8LhA-16" value="" style="rounded=0;whiteSpace=wrap;html=1;align=left;fontSize=20;strokeWidth=3;fillColor=#fff2cc;strokeColor=#d6b656;fontFamily=Courier New;" vertex="1" parent="1">
          <mxGeometry x="215" y="505" width="175" height="160" as="geometry" />
        </mxCell>
        <mxCell id="kuzPXEE_GRvSzF0P8LhA-17" value="&lt;b&gt;HA1&lt;/b&gt;" style="rounded=0;whiteSpace=wrap;html=1;fontSize=20;strokeWidth=3;fillColor=#f8cecc;strokeColor=#b85450;fontFamily=Courier New;" vertex="1" parent="1">
          <mxGeometry x="250" y="545" width="50" height="30" as="geometry" />
        </mxCell>
        <mxCell id="kuzPXEE_GRvSzF0P8LhA-18" value="&lt;b&gt;HA2&lt;/b&gt;" style="rounded=0;whiteSpace=wrap;html=1;fontSize=20;strokeWidth=3;fillColor=#f8cecc;strokeColor=#b85450;fontFamily=Courier New;" vertex="1" parent="1">
          <mxGeometry x="250" y="605" width="50" height="30" as="geometry" />
        </mxCell>
        <mxCell id="kuzPXEE_GRvSzF0P8LhA-19" value="&lt;b&gt;OR&lt;/b&gt;" style="rounded=0;whiteSpace=wrap;html=1;fontSize=20;strokeWidth=3;fillColor=#e1d5e7;strokeColor=#9673a6;fontFamily=Courier New;" vertex="1" parent="1">
          <mxGeometry x="320" y="575" width="50" height="30" as="geometry" />
        </mxCell>
        <mxCell id="kuzPXEE_GRvSzF0P8LhA-20" value="&lt;b&gt;FA3&lt;/b&gt;" style="text;html=1;align=center;verticalAlign=middle;resizable=0;points=[];autosize=1;strokeColor=none;fillColor=none;fontSize=20;strokeWidth=3;fontFamily=Courier New;" vertex="1" parent="1">
          <mxGeometry x="272.5" y="470" width="60" height="40" as="geometry" />
        </mxCell>
        <mxCell id="kuzPXEE_GRvSzF0P8LhA-21" value="" style="rounded=0;whiteSpace=wrap;html=1;align=left;fontSize=20;strokeWidth=3;fillColor=#fff2cc;strokeColor=#d6b656;fontFamily=Courier New;" vertex="1" parent="1">
          <mxGeometry x="460" y="505" width="175" height="160" as="geometry" />
        </mxCell>
        <mxCell id="kuzPXEE_GRvSzF0P8LhA-22" value="&lt;b&gt;HA1&lt;/b&gt;" style="rounded=0;whiteSpace=wrap;html=1;fontSize=20;strokeWidth=3;fillColor=#f8cecc;strokeColor=#b85450;fontFamily=Courier New;" vertex="1" parent="1">
          <mxGeometry x="495" y="545" width="50" height="30" as="geometry" />
        </mxCell>
        <mxCell id="kuzPXEE_GRvSzF0P8LhA-23" value="&lt;b&gt;HA2&lt;/b&gt;" style="rounded=0;whiteSpace=wrap;html=1;fontSize=20;strokeWidth=3;fillColor=#f8cecc;strokeColor=#b85450;fontFamily=Courier New;" vertex="1" parent="1">
          <mxGeometry x="495" y="605" width="50" height="30" as="geometry" />
        </mxCell>
        <mxCell id="kuzPXEE_GRvSzF0P8LhA-24" value="&lt;b&gt;OR&lt;/b&gt;" style="rounded=0;whiteSpace=wrap;html=1;fontSize=20;strokeWidth=3;fillColor=#e1d5e7;strokeColor=#9673a6;fontFamily=Courier New;" vertex="1" parent="1">
          <mxGeometry x="565" y="575" width="50" height="30" as="geometry" />
        </mxCell>
        <mxCell id="kuzPXEE_GRvSzF0P8LhA-25" value="&lt;b&gt;FA4&lt;/b&gt;" style="text;html=1;align=center;verticalAlign=middle;resizable=0;points=[];autosize=1;strokeColor=none;fillColor=none;fontSize=20;strokeWidth=3;fontFamily=Courier New;" vertex="1" parent="1">
          <mxGeometry x="517.5" y="470" width="60" height="40" as="geometry" />
        </mxCell>
        <mxCell id="kuzPXEE_GRvSzF0P8LhA-26" value="&lt;b&gt;4-bit Ripple Carry Adder&lt;/b&gt;" style="text;html=1;align=center;verticalAlign=middle;resizable=0;points=[];autosize=1;strokeColor=none;fillColor=none;fontSize=30;strokeWidth=3;fontFamily=Courier New;" vertex="1" parent="1">
          <mxGeometry x="205" y="170" width="460" height="50" as="geometry" />
        </mxCell>
        <mxCell id="kuzPXEE_GRvSzF0P8LhA-27" value="&lt;b&gt;Example of&amp;nbsp;Hierarchical Design&lt;/b&gt;" style="text;html=1;align=center;verticalAlign=middle;resizable=0;points=[];autosize=1;strokeColor=none;fillColor=none;fontSize=30;strokeWidth=3;fontFamily=Courier New;" vertex="1" parent="1">
          <mxGeometry x="150" width="560" height="50" as="geometry" />
        </mxCell>
      </root>
    </mxGraphModel>
  </diagram>
</mxfile>
